<?xml version="1.0" standalone="no"?>
<!DOCTYPE svg PUBLIC "-//W3C//DTD SVG 20010904//EN"
 "http://www.w3.org/TR/2001/REC-SVG-20010904/DTD/svg10.dtd">
<svg version="1.0" xmlns="http://www.w3.org/2000/svg"
 width="161.000000pt" height="154.000000pt" viewBox="0 0 161.000000 154.000000"
 preserveAspectRatio="xMidYMid meet">

<g transform="translate(0.000000,154.000000) scale(0.100000,-0.100000)"
fill="#000000" stroke="none">
<path d="M630 1431 c-124 -29 -246 -98 -338 -193 -139 -143 -206 -307 -205
-503 3 -516 531 -857 999 -645 198 89 340 264 396 485 26 99 21 275 -10 370
-115 361 -477 570 -842 486z m79 -220 c9 -6 -2 -10 -35 -13 -54 -5 -66 -2 -44
12 19 12 61 12 79 1z m231 -100 c0 -20 -117 -52 -209 -58 -116 -7 -116 4 0 17
47 5 109 18 139 29 64 23 70 24 70 12z m82 -114 c82 -111 99 -173 46 -165 -19
2 -24 11 -29 52 -6 53 -27 77 -60 69 -25 -7 -65 -59 -74 -95 -10 -41 -45 -38
-45 3 0 46 -16 69 -49 69 -33 0 -64 -30 -86 -84 -12 -29 -20 -36 -33 -31 -21
9 -72 17 -54 9 17 -8 15 -24 -3 -24 -8 0 -15 -4 -15 -10 0 -15 86 -12 155 5
81 19 127 18 62 -2 -81 -25 -44 -27 45 -3 111 31 246 33 277 6 43 -39 18 -94
-56 -123 -34 -13 -75 -18 -140 -18 -80 0 -95 3 -113 21 -24 23 -18 50 12 60
11 3 17 8 14 11 -10 10 -56 -27 -56 -45 0 -30 16 -44 70 -62 42 -14 48 -19 32
-24 -27 -9 -104 10 -163 40 -47 23 -50 27 -44 54 4 17 2 31 -6 36 -9 5 -10 2
-6 -10 9 -23 -23 -52 -72 -67 -22 -7 -38 -16 -35 -20 2 -4 24 -1 48 7 l44 15
91 -47 c89 -46 145 -59 160 -36 7 12 122 52 147 52 22 0 17 -45 -10 -98 -35
-68 -68 -108 -112 -138 -21 -14 -52 -39 -69 -54 -43 -40 -87 -35 -203 25 -79
41 -99 57 -139 109 -59 78 -86 140 -85 193 0 24 -4 43 -9 43 -5 0 -9 -4 -9
-10 0 -5 -8 -10 -18 -10 -55 0 -71 101 -21 129 23 13 29 12 65 -12 21 -15 45
-27 54 -27 8 0 44 29 79 64 60 61 63 66 57 100 l-7 35 48 6 c67 9 225 46 243
56 23 13 22 13 72 -54z m2 -88 c12 -34 0 -79 -20 -79 -13 0 -15 7 -10 32 4 21
1 39 -10 55 -15 24 -15 24 8 21 14 -2 26 -13 32 -29z m-186 -33 c2 -24 -2 -42
-10 -47 -23 -15 -28 -10 -28 25 0 19 -4 38 -10 41 -20 12 -9 26 18 23 24 -3
27 -8 30 -42z"/>
<path d="M948 1009 c-10 -5 -22 -19 -28 -29 -10 -18 -8 -19 22 -13 45 8 61 22
47 39 -13 16 -18 17 -41 3z"/>
<path d="M757 986 c-29 -13 -63 -53 -53 -63 3 -4 15 2 26 12 11 10 37 21 58
24 23 4 37 12 37 21 0 19 -32 22 -68 6z"/>
<path d="M410 805 c-11 -13 -10 -14 5 -9 14 6 16 3 11 -14 -12 -36 3 -46 30
-21 30 28 30 33 -1 47 -32 15 -30 15 -45 -3z"/>
<path d="M801 534 c26 -26 88 -35 121 -18 15 8 28 19 28 25 0 5 -14 2 -31 -6
-31 -16 -83 -13 -94 6 -4 5 -14 9 -23 9 -15 0 -15 -1 -1 -16z"/>
</g>
</svg>
